<svg width="71" height="18" viewBox="0 0 71 18" fill="none" xmlns="http://www.w3.org/2000/svg">
<path d="M6.372 13.97C4.596 13.97 3.252 13.508 2.34 12.584C1.44 11.648 0.99 10.388 0.99 8.804V1.118H3.276V8.84C3.276 9.836 3.552 10.598 4.104 11.126C4.668 11.642 5.424 11.9 6.372 11.9C7.308 11.9 8.052 11.642 8.604 11.126C9.168 10.598 9.45 9.836 9.45 8.84V1.118H11.736V8.804C11.736 10.388 11.286 11.648 10.386 12.584C9.486 13.508 8.148 13.97 6.372 13.97ZM13.8066 5.06H16.0026V6.104C16.4706 5.66 16.9806 5.33 17.5326 5.114C18.0846 4.898 18.7146 4.79 19.4226 4.79C20.2986 4.79 21.0786 4.982 21.7626 5.366C22.4586 5.738 22.9986 6.272 23.3826 6.968C23.7786 7.652 23.9766 8.45 23.9766 9.362C23.9766 10.262 23.7786 11.06 23.3826 11.756C22.9986 12.452 22.4586 12.998 21.7626 13.394C21.0786 13.778 20.2986 13.97 19.4226 13.97C18.7626 13.97 18.1386 13.88 17.5506 13.7C16.9746 13.508 16.4826 13.226 16.0746 12.854V17.642H13.8066V5.06ZM18.8646 12.188C19.6806 12.188 20.3526 11.924 20.8806 11.396C21.4086 10.868 21.6726 10.19 21.6726 9.362C21.6726 8.534 21.4086 7.862 20.8806 7.346C20.3526 6.83 19.6806 6.572 18.8646 6.572C18.2166 6.572 17.6406 6.746 17.1366 7.094C16.6326 7.442 16.2786 7.91 16.0746 8.498V10.244C16.2666 10.832 16.6146 11.306 17.1186 11.666C17.6346 12.014 18.2166 12.188 18.8646 12.188ZM28.4882 13.97C27.4562 13.97 26.6102 13.7 25.9502 13.16C25.2902 12.608 24.9602 11.87 24.9602 10.946C24.9602 9.986 25.2722 9.236 25.8962 8.696C26.5202 8.156 27.3962 7.886 28.5242 7.886C29.6162 7.886 30.5582 8.108 31.3502 8.552V8.318C31.3502 7.706 31.1582 7.262 30.7742 6.986C30.4022 6.71 29.7962 6.572 28.9562 6.572C28.4282 6.572 27.9062 6.626 27.3902 6.734C26.8742 6.83 26.4182 6.968 26.0222 7.148V5.366C26.3822 5.198 26.8622 5.06 27.4622 4.952C28.0742 4.844 28.6622 4.79 29.2262 4.79C30.7262 4.79 31.8362 5.114 32.5562 5.762C33.2762 6.398 33.6362 7.286 33.6362 8.426V13.7H31.4942V12.854C31.1222 13.214 30.6962 13.49 30.2162 13.682C29.7482 13.874 29.1722 13.97 28.4882 13.97ZM29.0462 12.314C29.5502 12.314 30.0062 12.218 30.4142 12.026C30.8222 11.822 31.1342 11.546 31.3502 11.198V10.244C30.6902 9.776 29.9342 9.542 29.0822 9.542C27.8702 9.542 27.2642 10.01 27.2642 10.946C27.2642 11.402 27.4142 11.744 27.7142 11.972C28.0262 12.2 28.4702 12.314 29.0462 12.314ZM35.7089 0.397997H37.9769V6.158C38.7929 5.246 39.8489 4.79 41.1449 4.79C42.3089 4.79 43.1789 5.108 43.7549 5.744C44.3309 6.368 44.6189 7.202 44.6189 8.246V13.7H42.3509V8.462C42.3509 7.202 41.7629 6.572 40.5869 6.572C40.0709 6.572 39.5849 6.698 39.1289 6.95C38.6729 7.19 38.2889 7.556 37.9769 8.048V13.7H35.7089V0.397997ZM53.3012 13.7C51.8972 13.7 50.6672 13.442 49.6112 12.926C48.5672 12.41 47.7572 11.672 47.1812 10.712C46.6172 9.752 46.3352 8.636 46.3352 7.364C46.3352 6.08 46.6232 4.946 47.1992 3.962C47.7872 2.966 48.5852 2.198 49.5932 1.658C50.6132 1.118 51.7532 0.847996 53.0132 0.847996C54.2612 0.847996 55.3892 1.118 56.3972 1.658C57.4172 2.198 58.2152 2.966 58.7912 3.962C59.3792 4.946 59.6732 6.08 59.6732 7.364C59.6732 8.228 59.4812 9.056 59.0972 9.848C58.7132 10.628 58.2152 11.246 57.6032 11.702H59.9072V13.7H53.3012ZM53.0132 11.63C54.3452 11.63 55.4012 11.258 56.1812 10.514C56.9732 9.77 57.3692 8.72 57.3692 7.364C57.3692 6.476 57.1772 5.696 56.7932 5.024C56.4092 4.352 55.8872 3.836 55.2272 3.476C54.5672 3.116 53.8292 2.936 53.0132 2.936C52.1972 2.936 51.4532 3.116 50.7812 3.476C50.1212 3.836 49.5992 4.352 49.2152 5.024C48.8312 5.696 48.6392 6.476 48.6392 7.364C48.6392 8.732 49.0292 9.788 49.8092 10.532C50.6012 11.264 51.6692 11.63 53.0132 11.63ZM64.7394 13.97C63.5754 13.97 62.7054 13.658 62.1294 13.034C61.5534 12.398 61.2654 11.558 61.2654 10.514V5.06H63.5334V10.298C63.5334 11.558 64.1214 12.188 65.2974 12.188C65.8134 12.188 66.2994 12.068 66.7554 11.828C67.2114 11.576 67.5954 11.204 67.9074 10.712V5.06H70.1754V13.7H67.9794V12.53C67.5714 13.022 67.0854 13.388 66.5214 13.628C65.9574 13.856 65.3634 13.97 64.7394 13.97Z" fill="#312E81"/>
</svg>
