<svg width="72" height="28" viewBox="0 0 72 28" fill="none" xmlns="http://www.w3.org/2000/svg">
<rect width="72" height="27" transform="translate(0 0.699997)" fill="white"/>
<path d="M6.372 20.97C4.596 20.97 3.252 20.508 2.34 19.584C1.44 18.648 0.99 17.388 0.99 15.804V8.118H3.276V15.84C3.276 16.836 3.552 17.598 4.104 18.126C4.668 18.642 5.424 18.9 6.372 18.9C7.308 18.9 8.052 18.642 8.604 18.126C9.168 17.598 9.45 16.836 9.45 15.84V8.118H11.736V15.804C11.736 17.388 11.286 18.648 10.386 19.584C9.486 20.508 8.148 20.97 6.372 20.97ZM13.8066 12.06H16.0026V13.104C16.4706 12.66 16.9806 12.33 17.5326 12.114C18.0846 11.898 18.7146 11.79 19.4226 11.79C20.2986 11.79 21.0786 11.982 21.7626 12.366C22.4586 12.738 22.9986 13.272 23.3826 13.968C23.7786 14.652 23.9766 15.45 23.9766 16.362C23.9766 17.262 23.7786 18.06 23.3826 18.756C22.9986 19.452 22.4586 19.998 21.7626 20.394C21.0786 20.778 20.2986 20.97 19.4226 20.97C18.7626 20.97 18.1386 20.88 17.5506 20.7C16.9746 20.508 16.4826 20.226 16.0746 19.854V24.642H13.8066V12.06ZM18.8646 19.188C19.6806 19.188 20.3526 18.924 20.8806 18.396C21.4086 17.868 21.6726 17.19 21.6726 16.362C21.6726 15.534 21.4086 14.862 20.8806 14.346C20.3526 13.83 19.6806 13.572 18.8646 13.572C18.2166 13.572 17.6406 13.746 17.1366 14.094C16.6326 14.442 16.2786 14.91 16.0746 15.498V17.244C16.2666 17.832 16.6146 18.306 17.1186 18.666C17.6346 19.014 18.2166 19.188 18.8646 19.188ZM28.4882 20.97C27.4562 20.97 26.6102 20.7 25.9502 20.16C25.2902 19.608 24.9602 18.87 24.9602 17.946C24.9602 16.986 25.2722 16.236 25.8962 15.696C26.5202 15.156 27.3962 14.886 28.5242 14.886C29.6162 14.886 30.5582 15.108 31.3502 15.552V15.318C31.3502 14.706 31.1582 14.262 30.7742 13.986C30.4022 13.71 29.7962 13.572 28.9562 13.572C28.4282 13.572 27.9062 13.626 27.3902 13.734C26.8742 13.83 26.4182 13.968 26.0222 14.148V12.366C26.3822 12.198 26.8622 12.06 27.4622 11.952C28.0742 11.844 28.6622 11.79 29.2262 11.79C30.7262 11.79 31.8362 12.114 32.5562 12.762C33.2762 13.398 33.6362 14.286 33.6362 15.426V20.7H31.4942V19.854C31.1222 20.214 30.6962 20.49 30.2162 20.682C29.7482 20.874 29.1722 20.97 28.4882 20.97ZM29.0462 19.314C29.5502 19.314 30.0062 19.218 30.4142 19.026C30.8222 18.822 31.1342 18.546 31.3502 18.198V17.244C30.6902 16.776 29.9342 16.542 29.0822 16.542C27.8702 16.542 27.2642 17.01 27.2642 17.946C27.2642 18.402 27.4142 18.744 27.7142 18.972C28.0262 19.2 28.4702 19.314 29.0462 19.314ZM35.7089 7.398H37.9769V13.158C38.7929 12.246 39.8489 11.79 41.1449 11.79C42.3089 11.79 43.1789 12.108 43.7549 12.744C44.3309 13.368 44.6189 14.202 44.6189 15.246V20.7H42.3509V15.462C42.3509 14.202 41.7629 13.572 40.5869 13.572C40.0709 13.572 39.5849 13.698 39.1289 13.95C38.6729 14.19 38.2889 14.556 37.9769 15.048V20.7H35.7089V7.398ZM53.3012 20.7C51.8972 20.7 50.6672 20.442 49.6112 19.926C48.5672 19.41 47.7572 18.672 47.1812 17.712C46.6172 16.752 46.3352 15.636 46.3352 14.364C46.3352 13.08 46.6232 11.946 47.1992 10.962C47.7872 9.966 48.5852 9.198 49.5932 8.658C50.6132 8.118 51.7532 7.848 53.0132 7.848C54.2612 7.848 55.3892 8.118 56.3972 8.658C57.4172 9.198 58.2152 9.966 58.7912 10.962C59.3792 11.946 59.6732 13.08 59.6732 14.364C59.6732 15.228 59.4812 16.056 59.0972 16.848C58.7132 17.628 58.2152 18.246 57.6032 18.702H59.9072V20.7H53.3012ZM53.0132 18.63C54.3452 18.63 55.4012 18.258 56.1812 17.514C56.9732 16.77 57.3692 15.72 57.3692 14.364C57.3692 13.476 57.1772 12.696 56.7932 12.024C56.4092 11.352 55.8872 10.836 55.2272 10.476C54.5672 10.116 53.8292 9.936 53.0132 9.936C52.1972 9.936 51.4532 10.116 50.7812 10.476C50.1212 10.836 49.5992 11.352 49.2152 12.024C48.8312 12.696 48.6392 13.476 48.6392 14.364C48.6392 15.732 49.0292 16.788 49.8092 17.532C50.6012 18.264 51.6692 18.63 53.0132 18.63ZM64.7394 20.97C63.5754 20.97 62.7054 20.658 62.1294 20.034C61.5534 19.398 61.2654 18.558 61.2654 17.514V12.06H63.5334V17.298C63.5334 18.558 64.1214 19.188 65.2974 19.188C65.8134 19.188 66.2994 19.068 66.7554 18.828C67.2114 18.576 67.5954 18.204 67.9074 17.712V12.06H70.1754V20.7H67.9794V19.53C67.5714 20.022 67.0854 20.388 66.5214 20.628C65.9574 20.856 65.3634 20.97 64.7394 20.97Z" fill="#312E81"/>
</svg>
