<svg width="71" height="18" viewBox="0 0 71 18" fill="none" xmlns="http://www.w3.org/2000/svg">
<path d="M6.372 14.27C4.596 14.27 3.252 13.808 2.34 12.884C1.44 11.948 0.99 10.688 0.99 9.104V1.418H3.276V9.14C3.276 10.136 3.552 10.898 4.104 11.426C4.668 11.942 5.424 12.2 6.372 12.2C7.308 12.2 8.052 11.942 8.604 11.426C9.168 10.898 9.45 10.136 9.45 9.14V1.418H11.736V9.104C11.736 10.688 11.286 11.948 10.386 12.884C9.486 13.808 8.148 14.27 6.372 14.27ZM13.8066 5.36H16.0026V6.404C16.4706 5.96 16.9806 5.63 17.5326 5.414C18.0846 5.198 18.7146 5.09 19.4226 5.09C20.2986 5.09 21.0786 5.282 21.7626 5.666C22.4586 6.038 22.9986 6.572 23.3826 7.268C23.7786 7.952 23.9766 8.75 23.9766 9.662C23.9766 10.562 23.7786 11.36 23.3826 12.056C22.9986 12.752 22.4586 13.298 21.7626 13.694C21.0786 14.078 20.2986 14.27 19.4226 14.27C18.7626 14.27 18.1386 14.18 17.5506 14C16.9746 13.808 16.4826 13.526 16.0746 13.154V17.942H13.8066V5.36ZM18.8646 12.488C19.6806 12.488 20.3526 12.224 20.8806 11.696C21.4086 11.168 21.6726 10.49 21.6726 9.662C21.6726 8.834 21.4086 8.162 20.8806 7.646C20.3526 7.13 19.6806 6.872 18.8646 6.872C18.2166 6.872 17.6406 7.046 17.1366 7.394C16.6326 7.742 16.2786 8.21 16.0746 8.798V10.544C16.2666 11.132 16.6146 11.606 17.1186 11.966C17.6346 12.314 18.2166 12.488 18.8646 12.488ZM28.4882 14.27C27.4562 14.27 26.6102 14 25.9502 13.46C25.2902 12.908 24.9602 12.17 24.9602 11.246C24.9602 10.286 25.2722 9.536 25.8962 8.996C26.5202 8.456 27.3962 8.186 28.5242 8.186C29.6162 8.186 30.5582 8.408 31.3502 8.852V8.618C31.3502 8.006 31.1582 7.562 30.7742 7.286C30.4022 7.01 29.7962 6.872 28.9562 6.872C28.4282 6.872 27.9062 6.926 27.3902 7.034C26.8742 7.13 26.4182 7.268 26.0222 7.448V5.666C26.3822 5.498 26.8622 5.36 27.4622 5.252C28.0742 5.144 28.6622 5.09 29.2262 5.09C30.7262 5.09 31.8362 5.414 32.5562 6.062C33.2762 6.698 33.6362 7.586 33.6362 8.726V14H31.4942V13.154C31.1222 13.514 30.6962 13.79 30.2162 13.982C29.7482 14.174 29.1722 14.27 28.4882 14.27ZM29.0462 12.614C29.5502 12.614 30.0062 12.518 30.4142 12.326C30.8222 12.122 31.1342 11.846 31.3502 11.498V10.544C30.6902 10.076 29.9342 9.842 29.0822 9.842C27.8702 9.842 27.2642 10.31 27.2642 11.246C27.2642 11.702 27.4142 12.044 27.7142 12.272C28.0262 12.5 28.4702 12.614 29.0462 12.614ZM35.7089 0.698H37.9769V6.458C38.7929 5.546 39.8489 5.09 41.1449 5.09C42.3089 5.09 43.1789 5.408 43.7549 6.044C44.3309 6.668 44.6189 7.502 44.6189 8.546V14H42.3509V8.762C42.3509 7.502 41.7629 6.872 40.5869 6.872C40.0709 6.872 39.5849 6.998 39.1289 7.25C38.6729 7.49 38.2889 7.856 37.9769 8.348V14H35.7089V0.698ZM53.3012 14C51.8972 14 50.6672 13.742 49.6112 13.226C48.5672 12.71 47.7572 11.972 47.1812 11.012C46.6172 10.052 46.3352 8.936 46.3352 7.664C46.3352 6.38 46.6232 5.246 47.1992 4.262C47.7872 3.266 48.5852 2.498 49.5932 1.958C50.6132 1.418 51.7532 1.148 53.0132 1.148C54.2612 1.148 55.3892 1.418 56.3972 1.958C57.4172 2.498 58.2152 3.266 58.7912 4.262C59.3792 5.246 59.6732 6.38 59.6732 7.664C59.6732 8.528 59.4812 9.356 59.0972 10.148C58.7132 10.928 58.2152 11.546 57.6032 12.002H59.9072V14H53.3012ZM53.0132 11.93C54.3452 11.93 55.4012 11.558 56.1812 10.814C56.9732 10.07 57.3692 9.02 57.3692 7.664C57.3692 6.776 57.1772 5.996 56.7932 5.324C56.4092 4.652 55.8872 4.136 55.2272 3.776C54.5672 3.416 53.8292 3.236 53.0132 3.236C52.1972 3.236 51.4532 3.416 50.7812 3.776C50.1212 4.136 49.5992 4.652 49.2152 5.324C48.8312 5.996 48.6392 6.776 48.6392 7.664C48.6392 9.032 49.0292 10.088 49.8092 10.832C50.6012 11.564 51.6692 11.93 53.0132 11.93ZM64.7394 14.27C63.5754 14.27 62.7054 13.958 62.1294 13.334C61.5534 12.698 61.2654 11.858 61.2654 10.814V5.36H63.5334V10.598C63.5334 11.858 64.1214 12.488 65.2974 12.488C65.8134 12.488 66.2994 12.368 66.7554 12.128C67.2114 11.876 67.5954 11.504 67.9074 11.012V5.36H70.1754V14H67.9794V12.83C67.5714 13.322 67.0854 13.688 66.5214 13.928C65.9574 14.156 65.3634 14.27 64.7394 14.27Z" fill="white"/>
</svg>
